# xmcd CD database file
#
# Track frame offsets:
#	150
#	25132
#	49045
#	71870
#	98397
#	109175
#	137282
#	160695
#	173660
#	191185
#
# Disc length: 2806 seconds
#
# Revision: 0
# Processed by: cddbd v1.5PL3 Copyright (c) Steve Scherf et al.
# Submitted via: CDex 1.51
#
DISCID=7a0af40a
DTITLE=マリア観音 - 義眼
DYEAR=1994
DGENRE=Progressive Rock
TTITLE0=鍵子の詩
TTITLE1=義眼
TTITLE2=五月の便所
TTITLE3=夏の二人
TTITLE4=泥人形
TTITLE5=淀みの部屋
TTITLE6=羽衣蝶の詩
TTITLE7=菫日記
TTITLE8=どうにもならずに
TTITLE9=薄羽蜉蝣
EXTD=YEAR: 1994
EXTT0=
EXTT1=
EXTT2=
EXTT3=
EXTT4=
EXTT5=
EXTT6=
EXTT7=
EXTT8=
EXTT9=
PLAYORDER=
